<?xml version="1.0" encoding="UTF-8"?>
<svg width="152px" height="38px" viewBox="0 0 152 38" version="1.1" xmlns="http://www.w3.org/2000/svg" xmlns:xlink="http://www.w3.org/1999/xlink">
    <!-- Generator: Sketch 58 (84663) - https://sketch.com -->
    <title>Logo/Nubi Cuenta/Monochrome</title>
    <desc>Created with Sketch.</desc>
    <g id="Logo/Nubi-Cuenta/Monochrome" stroke="none" stroke-width="1" fill="none" fill-rule="evenodd">
        <path d="M17.2336484,24.6432077 C19.0104466,23.6180314 20.6425306,22.0656435 21.9514813,20.1564172 C22.0008429,20.0860716 22.0490084,20.015726 22.0958693,19.9452716 L22.3758384,19.5246112 C25.2929535,15.1830785 28.4016435,12.61954 31.3658368,12.1109204 C33.0035746,11.829864 34.6003227,12.1129862 35.9841856,12.9291913 C37.2918316,13.7004926 38.3004815,14.9003913 38.8244314,16.3077389 C39.595624,18.3795104 39.2877124,20.9597927 38.0584577,22.7287626 C36.8689967,24.4397816 34.9221513,25.3441633 32.4261315,25.3441633 C32.1957414,25.3429674 26.7408558,25.3125241 23.1781266,25.3441633 C20.1467406,25.3713448 17.8305535,25.3794992 16.003524,25.259031 C16.4151601,25.0839823 16.8260352,24.8783817 17.2336484,24.6432077 M20.8969491,9.24044874 C23.1472484,9.03952334 25.5577009,9.99707206 27.0174545,11.6411159 C24.9636228,12.9525674 22.9465405,15.0165105 21.0132858,17.7856497 C18.8892172,15.9182829 17.0554467,14.5524685 15.1923202,13.9762214 C15.2934353,13.6996228 15.4096633,13.4243289 15.5393732,13.1544713 C16.6520738,10.838719 18.5547765,9.44865878 20.8969491,9.24044874 M9.79288488,17.7509661 C10.259645,17.0004314 11.1753343,16.0560385 12.8868969,15.8195598 C15.0294489,15.5232818 17.4727366,17.4581674 19.8086032,19.5311348 C17.9752676,21.9432182 14.9561677,24.1647051 12.1522362,23.8550538 C10.807406,23.7058819 9.83343963,22.9515419 9.33514897,21.6734693 C8.91459731,20.3840892 9.08964596,18.8819326 9.79288488,17.7509661 M37.0542656,11.1151002 C35.235608,10.0420846 33.1451357,9.66861121 31.0096509,10.0350174 C30.3164148,10.1539635 29.6161114,10.3579332 28.9246149,10.6422514 C27.0682294,8.2681133 23.8035178,6.86946372 20.7104843,7.1425831 C17.5988586,7.41918171 15.0881609,9.23033724 13.6409108,12.24237 C13.4142174,12.7142402 13.221229,13.2002449 13.0661859,13.6902724 C12.9055978,13.6978832 12.7510983,13.7121263 12.5987734,13.7331104 C10.6322486,14.0048163 9.00059947,15.0368423 8.00423561,16.6388092 C6.95894511,18.3200373 6.71202866,20.4590013 7.34644411,22.367684 L7.36014357,22.405738 C7.42983685,22.5872015 7.50768457,22.7656206 7.5927082,22.9382773 L7.57770403,22.9600225 L7.81363917,23.342955 C7.85452009,23.4122134 7.89627083,23.4804932 7.93997863,23.5481207 C9.14346527,25.5014897 10.7190118,26.5449318 13.2078557,27.0375687 C15.008791,27.3937547 17.3288923,27.4668185 20.2582934,27.4668185 C21.2284543,27.4668185 22.2882053,27.4585553 23.1969362,27.4504009 C26.6236494,27.4196314 31.8290091,27.4471391 32.4111274,27.4504009 L32.4245006,27.4504009 C36.4885649,27.4502921 38.6718891,25.5363907 39.7878514,23.930727 C41.4183045,21.5848577 41.8149365,18.3041633 40.7982409,15.5728608 C40.1064182,13.7143008 38.7767008,12.1312521 37.0542656,11.1151002" id="Iso" fill="#FFFFFF" fill-rule="nonzero"></path>
        <path d="M56.2494915,14.8361343 C56.9453371,14.8361343 57.6194375,15.423254 57.6194375,16.1408447 L57.6194375,20.2940642 C57.6194375,21.8597167 58.9241479,23.1209368 60.1852592,23.1209368 C61.6639311,23.1209368 62.7729349,21.8597167 62.7729349,20.2940642 L62.7729349,16.3149148 C62.7729349,15.5755789 63.5339073,15.0102044 64.1211357,15.0102044 C64.7952361,15.0102044 65.3605019,15.5755789 65.3605019,16.3149148 L65.3605019,20.2940642 C65.3605019,23.2948982 63.033877,25.7519941 60.1852592,25.7519941 C57.3583867,25.7519941 55.0317618,23.2948982 55.0317618,20.2940642 L55.0317618,16.1408447 C55.0317618,15.423254 55.5753911,14.8361343 56.2494915,14.8361343 Z M80.1711397,14.6186826 C80.8886217,14.6186826 81.4975953,15.2058023 81.4975953,15.9452469 L81.4975953,24.3387752 C81.4975953,25.0780024 80.8886217,25.6868673 80.1711397,25.6868673 C79.4100586,25.6868673 78.8011938,25.0780024 78.8011938,24.3387752 L78.8011938,15.9452469 C78.8011938,15.2058023 79.4100586,14.6186826 80.1711397,14.6186826 Z M67.9415453,9.16075268 C68.6143885,9.16075268 69.1723688,9.69598337 69.2394881,10.3541638 L69.2462557,10.487317 L69.2462557,15.5755789 C70.1379165,15.0102044 71.1815762,14.6621729 72.3124339,14.6621729 C75.3347956,14.6621729 77.8137454,17.1193775 77.8137454,20.1637019 C77.8137454,23.2080262 75.3347956,25.6651221 72.3124339,25.6651221 C71.159831,25.6651221 70.072681,25.3170906 69.2028741,24.7083345 C69.028804,25.2302186 68.5287737,25.6216318 67.9415453,25.6216318 C67.2485198,25.6216318 66.6891825,25.1056086 66.6219725,24.4498291 L66.6151984,24.3169213 L66.6151984,10.487317 C66.6151984,9.76972627 67.2023181,9.16075268 67.9415453,9.16075268 Z M45.085628,14.7274084 C45.6508938,14.7274084 46.1292877,15.0970764 46.3032491,15.6190693 C47.0860753,15.1189303 47.9776274,14.8361343 48.9561602,14.8361343 C51.7611789,14.8361343 54.0444222,17.2499573 54.0444222,20.2288287 L54.0444222,24.3387752 C54.0444222,25.056366 53.4790477,25.6432682 52.7614569,25.6432682 C52.022121,25.6432682 51.4567465,25.056366 51.4567465,24.3387752 L51.4567465,20.2288287 C51.4567465,18.6850301 50.3261062,17.4455552 48.9561602,17.4455552 C47.2600367,17.4455552 46.3903385,19.14157 46.3903385,20.6420957 L46.3903385,24.3387752 C46.3903385,25.056366 45.8031101,25.6432682 45.085628,25.6432682 C44.3679286,25.6432682 43.7809176,25.056366 43.7809176,24.3387752 L43.7809176,16.0321189 C43.7809176,15.3145281 44.3679286,14.7274084 45.085628,14.7274084 Z M72.3124339,17.2932302 C70.7249275,17.2932302 69.4419623,18.5763042 69.4419623,20.1637019 C69.4419623,21.7509908 70.7249275,23.0340648 72.3124339,23.0340648 C73.8779777,23.0340648 75.1826881,21.7509908 75.1826881,20.1637019 C75.1826881,18.5763042 73.8779777,17.2932302 72.3124339,17.2932302 Z M80.1711397,10.1392855 C80.8886217,10.1392855 81.4975953,10.7264052 81.4975953,11.4874863 L81.4975953,11.5962121 C81.4975953,12.3138029 80.8886217,12.922559 80.1711397,12.922559 C79.4100586,12.922559 78.8011938,12.3138029 78.8011938,11.5962121 L78.8011938,11.4874863 C78.8011938,10.7264052 79.4100586,10.1392855 80.1711397,10.1392855 Z" id="Nubi" fill="#FFFFFF" fill-rule="nonzero"></path>
        <path d="M95.9090026,14.7926222 C96.6047395,14.7926222 97.2788398,15.3797419 97.2788398,16.0973326 L97.2788398,20.2505521 C97.2788398,21.8162046 98.5835503,23.0774247 99.8447703,23.0774247 C101.323442,23.0774247 102.432446,21.8162046 102.432446,20.2505521 L102.432446,16.271294 C102.432446,15.5318494 103.193418,14.9665836 103.780538,14.9665836 C104.454638,14.9665836 105.020013,15.5318494 105.020013,16.271294 L105.020013,20.2505521 C105.020013,23.2512773 102.693279,25.708482 99.8447703,25.708482 C97.0178978,25.708482 94.6912729,23.2512773 94.6912729,20.2505521 L94.6912729,16.0973326 C94.6912729,15.3797419 95.2349022,14.7926222 95.9090026,14.7926222 Z M111.056375,14.7926005 C111.382553,14.7926005 111.686985,14.8143456 112.013163,14.8796899 C113.491726,15.1622684 114.753055,16.0755657 115.535772,17.3802761 C115.883695,17.9890323 116.275108,18.7937124 116.231727,19.5111944 C116.231727,19.706901 116.144746,19.9243527 116.057657,20.1418045 C115.883695,20.5550715 115.514136,20.9246307 114.992143,20.9246307 L108.294847,20.9246307 C108.599171,22.1642144 109.708283,23.1208933 111.056375,23.1208933 C111.752221,23.1208933 112.774244,22.838206 113.339619,22.2945767 C113.861503,21.7944377 114.687711,21.7944377 115.187958,22.3163219 C115.709843,22.8164608 115.688097,23.6644139 115.166213,24.1646616 C113.970229,25.3171558 112.29585,25.7084602 111.056375,25.7084602 C108.033796,25.7084602 105.620191,23.2731095 105.620191,20.2505303 C105.620191,17.2715503 108.033796,14.7926005 111.056375,14.7926005 Z M118.260486,14.6838094 C118.825752,14.6838094 119.304146,15.053586 119.478107,15.5754702 C120.260933,15.0753312 121.152486,14.7925352 122.131018,14.7925352 C124.936037,14.7925352 127.21928,17.2063582 127.21928,20.1853383 L127.21928,24.2951762 C127.21928,25.0126582 126.653906,25.5997779 125.936315,25.5997779 C125.196979,25.5997779 124.631605,25.0126582 124.631605,24.2951762 L124.631605,20.1853383 C124.631605,18.641431 123.500964,17.4019561 122.131018,17.4019561 C120.434895,17.4019561 119.565197,19.0980796 119.565197,20.5984966 L119.565197,24.2951762 C119.565197,25.0126582 118.977968,25.5997779 118.260486,25.5997779 C117.542787,25.5997779 116.955776,25.0126582 116.955776,24.2951762 L116.955776,15.9885198 C116.955776,15.2710378 117.542787,14.6838094 118.260486,14.6838094 Z M89.6419566,14.6838746 C91.0987745,14.6622381 92.4688292,15.2057588 93.5125975,16.2277819 C94.0343729,16.706067 94.0562268,17.5542375 93.5559791,18.0543765 C93.0558401,18.5762607 92.2296322,18.5980059 91.7077481,18.0977581 C91.1641187,17.575874 90.4464193,17.2932954 89.6854469,17.2932954 C88.9243658,17.2932954 88.2285203,17.6194731 87.6848909,18.1631024 C87.1847519,18.7067317 86.8804282,19.4242137 86.9021734,20.1852948 C86.9021734,20.9246307 87.2282423,21.6639666 87.7718716,22.1642144 C88.315501,22.707735 89.0330917,22.9904222 89.7724276,22.9686771 C90.4900183,22.9686771 91.1641187,22.6859898 91.6860029,22.207596 C92.1860332,21.707457 93.0340949,21.7509473 93.5125975,22.2728315 C94.0126278,22.7947157 93.9691374,23.6210323 93.4472533,24.1211713 C92.4688292,25.0344686 91.1857552,25.5563527 89.8376631,25.5780979 L89.7506824,25.5780979 C88.315501,25.5780979 86.9891541,25.0344686 85.9670222,24.0559358 C84.9233626,23.0339126 84.3361342,21.6857118 84.2927526,20.2288939 C84.2710074,18.7937124 84.7927828,17.4020213 85.8365512,16.358253 C86.8368292,15.3144846 88.1851387,14.7273649 89.6419566,14.6838746 Z M130.41369,9.07372849 C131.131281,9.07372849 131.7184,9.66084819 131.7184,10.3784389 L131.7184,14.5316584 L132.435991,14.5316584 C133.153582,14.5316584 133.740701,15.1187781 133.740701,15.8363688 C133.740701,16.5539595 133.153582,17.1409705 132.435991,17.1409705 L131.7184,17.1409705 L131.7184,22.3163219 C131.761891,22.4902832 131.7184,22.7512253 131.870616,22.8816964 C131.979342,22.9904222 132.175049,22.9686771 132.327265,22.9686771 C133.044856,22.9686771 133.631976,23.555688 133.631976,24.2733875 C133.631976,25.0127234 133.044856,25.5780979 132.327265,25.5780979 C132.131559,25.5780979 131.957597,25.5780979 131.761891,25.5563527 C131.0443,25.4476269 130.348454,25.1431944 129.848315,24.5778199 C129.413412,24.0776809 129.108979,23.2948547 129.108979,22.6207543 L129.108979,17.1409705 L128.174046,17.1409705 C127.456346,17.1409705 126.869335,16.5539595 126.869335,15.8363688 C126.869335,15.1187781 127.456346,14.5316584 128.174046,14.5316584 L129.108979,14.5316584 L129.108979,10.3784389 C129.108979,9.66084819 129.696099,9.07372849 130.41369,9.07372849 Z M143.399549,14.7709423 C144.11714,14.7709423 144.660769,15.3362081 144.660769,16.0103084 L144.660769,24.3386013 C144.660769,25.0127017 144.11714,25.5780762 143.399549,25.5780762 C142.682067,25.5780762 142.247163,25.0127017 142.247163,24.3386013 L142.247163,24.0776592 C141.312012,24.8822306 140.224862,25.3606244 138.920152,25.3606244 C136.006298,25.3606244 133.657928,23.0122544 133.657928,20.1201463 C133.657928,17.2280382 136.006298,14.857923 138.920152,14.857923 C140.224862,14.857923 141.312012,15.3579532 142.247163,16.1190343 L142.247163,16.0103084 C142.247163,15.3362081 142.682067,14.7709423 143.399549,14.7709423 Z M138.920152,17.4019996 C137.419735,17.4019996 136.18026,18.6197293 136.18026,20.1201463 C136.18026,21.6205633 137.419735,22.8164391 138.920152,22.8164391 C140.398824,22.8164391 141.63819,21.6205633 141.63819,20.1201463 C141.63819,18.6197293 140.398824,17.4019996 138.920152,17.4019996 Z M111.056375,17.4237665 C110.056206,17.4237665 109.186399,17.9239055 108.664515,18.7284769 L113.274274,18.7284769 C112.83948,17.9020516 112.034908,17.4237665 111.056375,17.4237665 Z" id="Cuenta" fill="#FFFFFF" fill-rule="nonzero"></path>
    </g>
</svg>