<?xml version="1.0" encoding="utf-8"?>
<!-- Generator: Adobe Illustrator 24.0.3, SVG Export Plug-In . SVG Version: 6.00 Build 0)  -->
<svg version="1.1" id="Layer_1" xmlns="http://www.w3.org/2000/svg" xmlns:xlink="http://www.w3.org/1999/xlink" x="0px" y="0px"
	 viewBox="0 0 640 176" style="enable-background:new 0 0 640 176;" xml:space="preserve">
<style type="text/css">
	.st0{fill:#1928AA;}
</style>
<path id="isologo" class="st0" d="M258.2,35c-15.6-9.2-34.1-12.5-51.9-9.3c-6.1,1.1-12.1,2.8-17.9,5.2c-15.9-20.4-44-32.4-70.6-30.1
	C91,3.2,69.5,18.8,57,44.7c-1.9,4-3.6,8.2-4.9,12.4c-1.4,0.1-2.7,0.2-4,0.4c-16.9,2.3-30.9,11.2-39.5,25c-9,14.8-11.1,32.8-5.6,49.2
	l0.1,0.3c0.6,1.6,1.3,3.1,2,4.6L5,136.7l2,3.3c0.4,0.6,0.7,1.2,1.1,1.8c10.3,16.8,23.9,25.7,45.3,30c15.5,3.1,35.4,3.7,60.6,3.7
	c8.3,0,17.4-0.1,25.2-0.1c29.4-0.3,74.2,0,79.2,0h0.1c34.9,0,53.7-16.4,63.3-30.2c14-20.2,17.4-48.3,8.7-71.8
	C284.3,57.2,273,43.7,258.2,35z M23.9,92c4-6.4,11.9-14.6,26.6-16.6c18.4-2.6,39.4,14.1,59.5,31.9c-15.7,20.7-41.7,39.8-65.8,37.1
	c-11.6-1.3-19.9-7.8-24.2-18.7C16.4,114.4,17.9,102.1,23.9,92L23.9,92z M119.4,18.9c19.3-1.7,40,6.5,52.6,20.6
	c-17.6,11.3-35,29-51.6,52.8c-18.2-16-34-27.8-50-32.7c0.9-2.4,1.9-4.7,3-7.1C82.9,32.6,99.2,20.7,119.4,18.9L119.4,18.9z
	 M87.9,151.2c15.3-8.8,29.3-22.1,40.5-38.6c0.4-0.6,0.8-1.2,1.2-1.8l2.4-3.6c25.1-37.3,51.8-59.3,77.2-63.7c13.6-2.5,27.7,0,39.7,7
	c11.2,6.6,19.8,16.9,24.4,29c6.6,17.8,4,40-6.6,55.2c-10.2,14.7-26.9,22.5-48.4,22.5c-2,0-48.8-0.3-79.5,0
	c-26,0.2-45.9,0.3-61.7-0.7C80.9,154.9,84.5,153.2,87.9,151.2z M404.1,113.3v35.3c0,6.1-5,11.1-11.1,11.1c-6.1,0-11.1-5-11.1-11.1
	c0,0,0,0,0,0v-35.3c0-13.3-9.7-23.9-21.5-23.9c-14.6,0-22,14.6-22,27.5v31.8c0,6.2-5,11.2-11.2,11.2c-6.2,0-11.2-5-11.2-11.2V77.2
	c0-6.2,5-11.2,11.2-11.2c4.8,0,9,3.1,10.5,7.7c6.8-4.4,14.7-6.7,22.8-6.7C384.5,66.9,404.1,87.7,404.1,113.3L404.1,113.3z
	 M501.4,79.6v34.2c0,25.8-20,46.9-44.5,46.9c-24.3,0-44.3-21.1-44.3-46.9V78.1c0-6.2,4.7-11.2,10.5-11.2c6,0,11.8,5,11.8,11.2v35.7
	c0,13.5,11.2,24.3,22,24.3c12.7,0,22.2-10.8,22.2-24.3V79.6c0-6.4,6.5-11.2,11.6-11.2C496.7,68.6,501.5,73.5,501.4,79.6
	C501.4,79.6,501.4,79.6,501.4,79.6L501.4,79.6z M561.1,65.4c-9.3,0-18.5,2.8-26.3,7.8V29.6c0-6.2-5.1-11.3-11.3-11.3
	c-6.2,0-11.3,5.1-11.3,11.3v118.8c0,6.2,5.1,11.3,11.4,11.2c0,0,0,0,0,0c4.9,0,9.3-3.2,10.8-7.8c7.9,5.4,17.2,8.3,26.7,8.2
	c26.1,0,47.3-21.2,47.3-47.3C608.4,86.6,587.2,65.4,561.1,65.4C561.1,65.4,561.1,65.4,561.1,65.4L561.1,65.4z M561.1,137.4
	c-13.6,0-24.7-11-24.7-24.7s11-24.7,24.7-24.7c13.6,0,24.7,11,24.7,24.7C585.8,126.3,574.7,137.4,561.1,137.4
	C561.1,137.4,561.1,137.4,561.1,137.4L561.1,137.4z M640,38.2v0.9c0,6.4-5.2,11.6-11.6,11.6c-6.4,0-11.6-5.2-11.6-11.6v-0.9
	c0-6.4,5.2-11.6,11.6-11.6C634.8,26.6,640,31.7,640,38.2C640,38.2,640,38.2,640,38.2z M640,76.5v72.1c0,6.4-5.2,11.6-11.6,11.6
	c-6.4,0-11.6-5.2-11.6-11.6c0,0,0,0,0,0V76.5c0-6.4,5.2-11.6,11.6-11.6C634.8,64.9,640,70.1,640,76.5z"/>
</svg>
